<svg width="23" height="28" viewBox="0 0 23 28" fill="none" xmlns="http://www.w3.org/2000/svg">
<path d="M14.2728 17.3506C14.2593 17.3706 14.2435 17.3893 14.2299 17.4092L18.39 19.3857C20.9534 21.0779 22.334 24.4606 21.6127 27.9473L22.9701 21.5615V21.5625L21.6029 27.9971L21.6019 27.9961V27.9941L21.5941 27.9902C20.2722 26.8606 18.7848 25.9393 17.1849 25.2578L6.16736 20.5645C5.6619 20.4156 5.18388 20.2107 4.73767 19.9561L4.1322 19.6982L4.15661 19.584C1.71443 17.8413 0.425999 14.5244 1.14978 11.1152L14.2728 17.3506ZM5.85583 5.07422L16.1449 10.707C16.1332 10.7274 16.1196 10.7473 16.1078 10.7676L19.3715 12.5537C21.3584 14.1217 22.327 17.4086 21.6078 20.8887L22.9613 14.5195L22.9623 14.5205L21.5941 20.9561L21.5931 20.9541L21.5941 20.9512L21.5853 20.9463C20.5724 19.8851 19.3765 19.0151 18.056 18.376L9.50915 14.2373C9.09847 14.1091 8.71382 13.9217 8.35779 13.6807L7.89685 13.458L7.92029 13.3457C6.02877 11.7201 5.12997 8.4846 5.85486 5.07422C5.85848 5.05723 5.86288 5.04039 5.86657 5.02344L5.85583 5.07422ZM18.5375 4.4375C18.5296 4.45858 18.5201 4.47903 18.5121 4.5L22.9994 7.45605V7.45703L20.6449 5.90723C21.9487 7.24547 22.5477 10.4172 22.0072 13.96C21.3527 13.0234 20.4953 12.2466 19.4994 11.6865L14.0873 8.64258C13.8241 8.5613 13.5782 8.42244 13.3509 8.22949L13.0384 8.05371L13.056 7.93848C11.827 6.53962 11.2769 3.44456 11.8021 0L18.5375 4.4375Z" fill="url(#paint0_linear_120_92)"/>
<defs>
<linearGradient id="paint0_linear_120_92" x1="24.2231" y1="22.9214" x2="-3.73256" y2="11.641" gradientUnits="userSpaceOnUse">
<stop stop-color="#C4FFA6"/>
<stop offset="1" stop-color="#7BCAFF"/>
</linearGradient>
</defs>
</svg>
